<svg id="Layer_1" data-name="Layer 1" xmlns="http://www.w3.org/2000/svg" viewBox="0 0 24 24"><defs><style>.cls-1{fill:none;stroke:#000;stroke-linecap:round;stroke-linejoin:round;}</style></defs><title>yoga-pose2</title><circle class="cls-1" cx="11.46" cy="3.85" r="2"/><path class="cls-1" d="M9.88,11.93a2.06,2.06,0,0,0-2.09-2h0L3.46,9.57a1,1,0,0,1-1-1h0a1,1,0,0,1,1-1H20.46a1,1,0,0,1,1,1h0a1,1,0,0,1-1,1l-4.15.31A1.54,1.54,0,0,0,15,11.29h0a6.73,6.73,0,0,0,1.89,5.26l3.9,4a1.21,1.21,0,0,1,0,1.69h0a1.23,1.23,0,0,1-1.7.06l-6.32-5.44H6.28v4.49A1.18,1.18,0,0,1,5.1,22.5h0a1.17,1.17,0,0,1-1.17-1.17v-6a1,1,0,0,1,.84-1,22.09,22.09,0,0,1,5.62-.19"/></svg>